# xmcd CD database file
#
# Track frame offsets:
#	150
#	63328
#	111983
#	175574
#
# Disc length: 4126 seconds
#
# Revision: 0
# Processed by: cddbd v1.5.1PL0 Copyright (c) Steve Scherf et al.
# Submitted via: CDex 1.51
#
DISCID=2c101c04
DTITLE=Gov't Mule - Live...With A Little Help From Our Friends [CD2]
DYEAR=1999
DGENRE=Blues
TTITLE0=Sad And Deep As You
TTITLE1=Devil Likes It Slow
TTITLE2=Cortez The Killer
TTITLE3=Afro-Blue
EXTD=YEAR: 1999
EXTT0=
EXTT1=
EXTT2=
EXTT3=
PLAYORDER=
